<svg width="598" height="484" xmlns="http://www.w3.org/2000/svg" xmlns:xlink="http://www.w3.org/1999/xlink"><defs><path d="M134.927 151.747S25.413 126.255.955.258c0 0 139.03 37.425 133.972 151.489z" id="a"/><path d="M90.266 88.739S4.703 96.169.12.596c0 0 108.012-5.34 90.146 88.143z" id="c"/><path d="M.302 38.542s46.001-72.528 124.758-18.19c0 0-61.28 89.105-124.758 18.19z" id="e"/></defs><g fill="none" fill-rule="evenodd"><path d="M526.001 41.627s0 7.137 1.647 7.274c1.647.138 4.667-10.569 6.726-11.804 2.059-1.235-1.647-9.196-1.647-9.196l-6.976 5.398.25 8.328zM500.578 17.075c-.404.404-4.235 10.488-6.33 7.544-2.644-3.715 6.086-10.622 6.33-10.507v2.963zM159.963 483.652c-30.706-1.057-59.798-10.68-83.124-31.208-40.835-35.938-25.18-73.12 10.814-104.909 62.571-55.26 132.136-114.086 218.556-129.286 85.116-14.97 170.05 19.125 237.971 66.248 24.161 16.763 51.89 36.468 52.83 68.874.72 24.772-11.646 43.402-32.901 48.747-57.495 14.459-116.99-4.029-172.58 13.374-71.235 22.3-138.833 63.264-215.123 67.928-5.517.338-10.997.415-16.443.232z" fill="#112F4E" fill-rule="nonzero"/><path d="M475.364 362.485s-8.31 15.504-13.041 18.528c-4.732 3.025-6.446 7.335 3.03 7.316 9.475-.019 12.048-5.192 19.369-6.068a35.368 35.368 0 0013.342-4.765s-1.323-15.503-3.912-17.65c-2.589-2.15-18.788 2.639-18.788 2.639zM502.611 361.786s-4.991 10.6-.96 13.338c4.03 2.738 6.045 4.107 8.303 6.746 2.258 2.638 17.892 1.845 19.36-1.943 1.47-3.789-3.897-6.371-7.828-10.882-3.93-4.511-4.253-17.944-4.253-17.944l-14.622 10.685z" fill="#A1D3FF" fill-rule="nonzero"/><path d="M472.176 169.1s-7.404 100.044-5.203 112.781c0 0-1.373.348 1.44 23.01 2.814 22.662 7.927 44.596 6.803 47.656-1.125 3.06-1.588 9.313 1.44 10.884 3.027 1.572 15.169 7.41 19.138 2.315 3.97-5.095-4.32-56.903-5.595-70.02-1.275-13.118 1.52-20.546 3.355-39.27 1.835-18.726 10.717-35.583 10.717-35.583s5.212 20.594 4.534 35.813c-.677 15.218 2.914 33.447-1.55 57.366-4.465 23.92-9.94 43.274-7.342 50.652 2.598 7.377 19.271.528 20.38 3.753 1.108 3.226 5.723-4.516 4.15-13.614-1.571-9.098 8.962-72.536 9.92-85.488.364-4.923 4.943-20.233 6.945-33.167 3.267-21.096 4.414-41.437 4.414-41.437s-38.61-24.413-73.546-25.651z" fill="#0B4778" fill-rule="nonzero"/><path d="M532.448 67.831s-27.627 6.759-33.365 1.091c-5.738-5.668-28.91 114.957-28.91 114.957l83.95 12.503-21.675-128.55z" fill="#E8F5FF" fill-rule="nonzero"/><path d="M505.48 59.095s-8.847 8.17-6.397 9.827c2.45 1.657 14.53 3.9 19.284 4.57 4.754.67 14.233-4.572 14.081-5.66a12.312 12.312 0 01-2.176-3.78c-2.238-6.476-3.708-20.963-3.44-22.407.38-2.05-21.353 17.45-21.353 17.45z" fill="#A1D3FF" fill-rule="nonzero"/><path d="M522.082 54.216s-10.803 12.696-16.595 11.213c-5.792-1.482-.705-8.203-.705-8.203l17.3-3.01z" fill="#2491FF" fill-rule="nonzero"/><path d="M501.643 20.85s-2.374-3.528-3.546-2.776c-1.172.753-2.254 9.187-1.85 11.39.438 2.04.407 4.154-.089 6.18-.532 2.53.106 8.83 1.026 13.32.919 4.488 3.233 11.239 5.996 12.033 2.763.795 2.855 2.559 8.257.432 5.401-2.127 1.065-32.28 1.065-32.28l-10.859-8.298z" fill="#A1D3FF" fill-rule="nonzero"/><path d="M501.643 20.85s.337 11.795 1.557 12.63c1.22.833-2.378 8.157-2.309 8.65.068.491.869 2.638 2.154 2.86 1.286.223 2.055 3.227 2.055 3.227.237.413.552.776.927 1.07.435.24.11 1.696.11 1.696s-.983 1.592-.32 2.754c.664 1.162 1.38 1.263 1.433 2.36.052 1.096-.552 4.692.24 5.335.792.642 4.56 1.18 12.107-4.585 7.548-5.765 7.235-15.202 7.235-15.202s1.864 1.256 2.67-1.157c1.489-4.467 2.907-11.859 1.854-12.095-1.623-.363-5.176 4.453-5.605 4.906a16.32 16.32 0 00-1.23 1.743s-1.462.793-1.502.503c-.04-.289-.834-5.286-2.04-6.887-1.204-1.6 3.012-13.212 3.012-13.212s-9.54-1.655-13.486 2.881c-1.838 2.114-5.45.366-6.14 1.051a11.1 11.1 0 01-2.722 1.473z" fill="#A1D3FF" fill-rule="nonzero"/><path d="M463.39 102.743s8.176-.625 12.499-4.36c2.783-2.404-17.567 57.984-17.567 57.984l5.069-53.624zM531.727 81.334s-2.617-5.025-5.728-4.41" fill="#005EA2" fill-rule="nonzero"/><path d="M576.663 203.997s-.443 13.303 1.946 13.99c2.39.687 3.94-6.567 3.94-6.567s.42 12.175-1.726 13.239c0 0-5.577 2.05-4.403 3.161 1.174 1.111 9.106-.502 9.501-1.322.396-.82 5.414-16.046 5.275-17.046-.14-1-8.02-20.878-8.02-20.878l-8.085 2.219s.509 11.058 1.572 13.204z" fill="#A1D3FF" fill-rule="nonzero"/><path d="M528.656 67.693s-15.305 19.22-9.913 32.455c5.393 13.233 29.65 96.647 29.65 96.647l1.773-.025 3.885 8.782s19.931-.331 17.933-6.712c-1.997-6.381-11.075-49.29-14.47-56.142-3.395-6.853-7.004-23.22-7.004-23.22s22.745 69.525 22.734 72.634c-.012 3.11 13.277-.293 13.277-.293s-3.081-6.717-2.417-10.487c.513-2.916 1.113-14.388.23-18.171-2.42-10.37-6.59-24.673-10.935-38.54-3.117-9.945-8.856-18.916-10.838-27.018-2.574-10.519-4.303-17.56-5.001-18.394-2.662-3.18-16.51-8.58-18.965-8.681-2.456-.103-5.36-5.026-6.758-5.497-1.398-.472-3.181 2.662-3.181 2.662z" fill="#0076D6" fill-rule="nonzero"/><path d="M536.302 71.824l-3.686 8s9.142-7.415 11.585-6.411c2.443 1.004-5.606-2.885-5.606-2.885M554.051 205.552c-2.889.197-32.34-107.797-31.835-110.516.505-2.719 49.768 103.804 49.768 103.804s3.181 5.274-17.933 6.712zM546.06 101.43l21.32 70.751s-2.085-21.34-3.302-26.909c-1.216-5.569-18.018-43.842-18.018-43.842z" fill="#005EA2" fill-rule="nonzero"/><path d="M503.18 60.997a12.928 12.928 0 00-5.26 2.76c-2.416 2.147-4.405 5.829-6.736 5.82-4.664-.017-5.645-3.876-17.809-1.962-12.163 1.915-28.75 29.108-34.309 27.44-5.56-1.668-6.664-8.864-12.204-32.732 0 0-9.953-7.716-16.568-1.024 0 0 3.35 26.72 6.838 38.844 3.923 13.635 4.788 21.907 19.56 21.184a85.04 85.04 0 0025.614-5.185s-5.485 57.435-9.778 66.467c-4.292 9.032 18.215 9.674 18.215 9.674s18.343-67.588 23.796-79.445c5.453-11.857 10.02-47.4 8.641-51.84z" fill="#0076D6" fill-rule="nonzero"/><path d="M499.743 77.406s-.351-9.923-3.617-7.102c-1.386 1.198 3.617 7.102 3.617 7.102zM492.994 69.596s-1.128 7.067-2.666 8.433c-.974.865-5.73-4.24-9.738-7.51-2.32-1.893-4.386-2.246-5.335-2.87-1.42-.934 5.118-.07 10.653.785.835.13 1.747 1.219 2.506 1.341 1.522.27 3.084.208 4.58-.18z" fill="#005EA2" fill-rule="nonzero"/><path d="M497.435 19.227l4.417 13.84 1.317 1.47.005 1.75-1.727 3.783-1.992 2.852a2.33 2.33 0 001.356 3.188l3.48 1.192 2.886 4.387a28.29 28.29 0 00-3.194 3.862c-.51 1.385-.103 6.344-.103 6.344a21.832 21.832 0 01-5.864-7.552c-1.266-2.831-.896-5.27-1.518-11.087-.188-1.758-.706-4.48-.807-6.006-.208-3.143-1.487-5.93-1.396-8.023a21.163 21.163 0 013.14-10z" fill="#2491FF" fill-rule="nonzero"/><path d="M501.977 37.394a6.788 6.788 0 00-3.452-1.475 2.369 2.369 0 00-2.14 1.373l.85-.334.376.378 1.872.062s.329-.601.252-.895l2.242.89zM508.527 36.839s1.513-2.003 2.287-2.11a6.165 6.165 0 014.36.809l-2.697-.575s-.108.768-.33.852a14.3 14.3 0 01-1.418.234.986.986 0 01-.46-.474c-.06-.17-1.742 1.264-1.742 1.264z" fill="#112F4E" fill-rule="nonzero"/><path d="M512.654 34.688s-2.332-.295-3.325.319c-.345.222-.619.54-.786.916a6.383 6.383 0 011.17-.737c.377-.124 2.941-.498 2.941-.498zM496.945 36.676s2.407-1.249 4.151-.434c0 0-2.52-1.495-4.15.434zM502.738 47.358s-1.174-1.13-1.822-.81c-.649.322 1.822.81 1.822.81zM504.758 46.593a4.31 4.31 0 013.683-.75c-1.249.13-2.482.38-3.683.75zM501.799 51.373a21.106 21.106 0 0013.2-3.113s-2.928 2.556-4.335 2.752c-1.407.196-2.954.673-4.527 1.042-1.278.182-2.58.117-3.834-.19l-.504-.491z" fill="#112F4E" fill-rule="nonzero"/><path d="M504.084 54.983s3.511.485 5.48-.568c1.156-.618.914.77-2.314 2.752a23.11 23.11 0 01-4.867 2.395c.064-.343 1.701-4.58 1.701-4.58z" fill="#2491FF" fill-rule="nonzero"/><g fill-rule="nonzero"><path d="M423.272 62.361s6.892-6.72 7.463-8.857a62.821 62.821 0 001.102-9.008 14.69 14.69 0 00-.768-3.675c-.042-.484.457-3.527-.26-3.743-.716-.216-3.04 1.105-3.18 3.488 0 0-.072-5.573-.056-6.97.017-1.396-.486-10.278-1.227-10.771-.741-.493-2.614-1.165-3.308-.336 0 0 .367-2.962-1.677-3.2-2.043-.239-2.174 3.818-2.174 3.818l-.166 7.616s-.522 2-.56 2.351c-.039.352.284-7.069.204-7.968-.079-.9-.22-4.096-2.248-3.36-2.028.737-1.495 5.99-1.495 5.99s-.289 8.605-.122 9.706c.167 1.101.79 3.418-.6 3.47 0 0-1.758-10.446-2.114-11.321-.356-.876-2.375-.837-2.699.237-.324 1.075 1.462 12.635 1.462 12.635s-1.174 10.425-.163 13.196c1.01 2.77 2.614 10.905 2.975 11.535.989 1.726 9.18-3.4 9.18-3.4s.053-1.078.431-1.433z" fill="#A1D3FF"/><path d="M419.991 57.107c.602-.483 8.918-6.16 9.075-6.82.157-.658.17-5.39.17-5.39s.076-6.456 1.513-7.228c1.437-.772 3.664 7.418 3.664 7.418l-6.635 14.99-4.562 1.906s-4.48.395-4.324-.264l1.099-4.612zM423.03 21.393l-1.04 16.625s1.038.41 1.016.161c-.022-.248.025-16.786.025-16.786zM418.086 23.08s-.055 2.015-.1 4.226c-.05 2.385-.09 4.998-.04 5.557.06.694.256 2.52.387 3.731l.126 1.15s.41-6.716.442-7.303c.011-.21.086-3.143-.048-4.338a8.108 8.108 0 00-.767-3.022zM412.138 30.452l1.1 10.592s1.092.07 1.062-.26c-.013-.148-.398-6.698-.87-8.943-.59-2.797-1.292-1.389-1.292-1.389z" fill="#2491FF"/><path d="M426.128 23.375l-.416 24.67s.71-.48.756-.902c.046-.421 1.136-5.11 1.136-5.11s-.064-9.263-.105-10.68c-.042-1.415-.528-7.886-.528-7.886l-.843-.092z" fill="#2491FF"/></g><path d="M527.009 34.623s-6.328 3.505-7.496 0c-1.168-3.504-4.575-8.469-2.823-10.805 1.752-2.336 5.685-4.128 2.26-5.84a13.825 13.825 0 00-4.342 1.429c-2.141 1.557-11.849 3.673-15.157.531-3.31-3.141-2.522-2.934-1.938-4.687 1.407-4.22 19.177-12.852 28.976-7.046 2.628 1.558 7.647 8.345 7.647 8.345s4.187 10.367 1.656 14.845c-2.53 4.478-8.783 3.228-8.783 3.228z" fill="#112F4E" fill-rule="nonzero"/><path d="M508.506 32.125l-1.242 1.948 11.087.147a6.801 6.801 0 00-4.731-1.931 46.852 46.852 0 01-5.114-.164zM495.442 34.276c1.712.041 6.146-.251 6.146-.251l.18 1.353" fill="#112F4E" fill-rule="nonzero"/><path d="M523.486 36.593s3.097-11.153 7.87-8.2c4.773 2.954-.693 13.662-2.609 13.457a34.999 34.999 0 01-4.139-.771l-1.122-4.486z" fill="#A1D3FF" fill-rule="nonzero"/><path fill="#0076D6" fill-rule="nonzero" d="M137.011 123.507l-10.031-1.602.032-10.49-17.789-2.842-.033 10.49-10.031-1.603-.058 18.602 10.031 1.602-.032 10.489 17.789 2.842.033-10.489 10.031 1.602z"/><path d="M258.22 311.602c2.643-9.725 45.283-141.222 137.19-163.76 0 0-42.04 115.69-52.15 149.6-11.303 37.906-98.73 64.514-85.04 14.16z" fill="#58B4FF" fill-rule="nonzero"/><path d="M130.99 290.656S13.379 219.01.208 174.47a196.902 196.902 0 0010.408 58.04c2.023 6.076 24.892 15.505 24.892 15.505s-12.545 14.775-9.44 20.753c13.83 26.622 31.777 50.593 50.231 70.61 4.676 5.072 26.715-5.456 26.715-5.456s-4.408 27.223 2.502 33.098c60.213 51.196 123.853 77.51 123.853 77.51s-62.873-132.602-98.38-153.874z" fill="#2491FF" fill-rule="nonzero"/><path d="M175.61 257.466l-28.962 11.008 12.327-23.308C85.803 185.93.208 174.47.208 174.47c13.17 44.54 130.782 116.186 130.782 116.186 35.506 21.272 98.379 153.874 98.379 153.874 18.133-85.569-53.76-187.064-53.76-187.064z" fill="#0076D6" fill-rule="nonzero"/><path d="M333.236 316.7s-30.705 73.92-57.868 88.204a159.234 159.234 0 0036.305-15.046c3.675-2.068 6.72-15.7 6.72-15.7s11.289 4.197 14.754 1.573a226.531 226.531 0 0039.108-38.152c2.665-3.305-7.143-13.216-7.143-13.216s18.28-2.15 21.166-6.767c25.15-40.232 33.674-78.181 33.674-78.181s-77.678 55.027-86.716 77.285z" fill="#2491FF" fill-rule="nonzero"/><path d="M305.664 298.586l11.052 13.49-16.803-2.678c-28.628 48.4-24.545 95.506-24.545 95.506 27.162-14.285 57.868-88.204 57.868-88.204 9.038-22.258 86.716-77.285 86.716-77.285-58.033 4.495-114.288 59.171-114.288 59.171z" fill="#0076D6" fill-rule="nonzero"/><g transform="translate(88.007 161.411)"><mask id="b" fill="#fff"><use xlink:href="#a"/></mask><use fill="#005EA2" fill-rule="nonzero" xlink:href="#a"/><g mask="url(#b)" fill="#58B4FF" fill-rule="nonzero"><path d="M133.5 152.999C127.526 146.188.812 2.962-.467 1.516L2.377-1C3.657.446 130.376 143.678 136.354 150.495l-2.854 2.504z"/><path d="M46.798 9.304l3.794-.162 1.97 46.151-3.793.162zM94.318 108.506a427.699 427.699 0 00-36.38-25.45C32.473 67.309 13.843 60.629 4.052 63.751L2.898 60.13c25.94-8.267 91.027 43.21 93.784 45.404l-2.364 2.971z"/><path d="M50.42 58.252a427.699 427.699 0 00-36.38-25.45c-25.466-15.749-44.097-22.429-53.888-19.307L-41 9.877c25.94-8.268 91.026 43.208 93.784 45.403l-2.365 2.972z"/></g></g><path fill="#58B4FF" fill-rule="nonzero" d="M176.64 260.145l5.62-92.491 3.79.23-5.618 92.492zM191.02 210.063l3.729-.72 17.593 90.976-3.729.72z"/><g transform="translate(77.529 360.825)"><mask id="d" fill="#fff"><use xlink:href="#c"/></mask><use fill="#005EA2" fill-rule="nonzero" xlink:href="#c"/><g mask="url(#d)" fill="#58B4FF" fill-rule="nonzero"><path d="M88.96 90.116C84.947 86.14-.322 2.818-1.183 1.977L1.423-.785c.86.842 86.133 84.167 90.15 88.146l-2.613 2.755z"/><path d="M61.755 60.191l-3.04.784L74.43-15.216 77.47-16zM35.244 31.867l-3.09 1.102 3.98-36.797 3.09-1.102z"/><path d="M62.618 64.186a183.904 183.904 0 00-26.373-11.257c-18.71-6.21-32.984-6.84-41.286-1.81l-.495-2.63c21.993-13.321 68.46 11.622 70.427 12.69l-2.273 3.007zM33.154 34.806A183.903 183.903 0 006.782 23.55c-18.711-6.21-32.985-6.84-41.286-1.81L-35 19.11C-13.006 5.787 33.46 30.73 35.427 31.798l-2.273 3.007z"/></g></g><g transform="translate(268.157 359.68)"><mask id="f" fill="#fff"><use xlink:href="#e"/></mask><use fill="#005EA2" fill-rule="nonzero" xlink:href="#e"/><g mask="url(#f)" fill="#58B4FF" fill-rule="nonzero"><path d="M0 36.668c5.595-.778 123.562-18.016 124.753-18.19l.614 3.747C124.177 22.4 6.204 39.637.605 40.416L0 36.668z"/><path d="M40.293 33.196l1.221-2.893L92.55 89.017l-1.221 2.893zM8.38 35.266l.661-3.401 56.848 39.284-.661 3.4zM78.893 29.304l.998-3.126 26.838 25.487-.999 3.126z"/><path d="M36.594 31.458A183.905 183.905 0 0061.542 17.32C77.829 6.214 86.989-4.75 88.027-14.4L90.42-13.2c-2.753 25.566-50.771 47.373-52.813 48.289l-1.012-3.631zM77.824 25.859a183.905 183.905 0 0024.948-14.137C119.059.615 128.219-10.349 129.257-20l2.392 1.201C128.896 6.767 80.878 28.574 78.836 29.49l-1.012-3.631z"/></g></g><path d="M171.404 457.705l139.63-25.483c6.218-1.135 10.793-7.25 10.793-14.427V69.8c0-8.04-4.572-15.152-11.298-17.578L167.349.6c-6.22 1.135-10.794 7.25-10.794 14.426v428.252c0 8.991 7.058 15.849 14.849 14.427z" fill="#0B4778" fill-rule="nonzero"/><path fill="#A1D3FF" fill-rule="nonzero" d="M424.865 280.557l-9.239-1.196v-9.24L399.24 268v9.24l-9.24-1.196v16.386l9.24 1.196v9.239l16.386 2.121v-9.239l9.239 1.195z"/><g transform="translate(163 9)"><path d="M2.14 5.011L.862 435.786a7.158 7.158 0 008.3 7.091L146.8 420.638a7.158 7.158 0 006.016-7.066V67.792c0-8.19-5.115-15.507-12.806-18.319L7.74 1.11a4.169 4.169 0 00-5.6 3.901z" fill="#2491FF" fill-rule="nonzero"/><path d="M70.879 142.928s4.65-10.561-2.516-18.175c-3.45-3.664 15.227 4.703 15.227 4.703l-12.711 13.472z" fill="#005EA2" fill-rule="nonzero"/><path d="M109.234 123.768s-24.03 7.125-31.108 1.721c-1.205-.92-4.265 6.598-10.454 1.1-4.363-3.875-7.798-12.906-8.834-17.61-6.235-28.296 4.876-39.677 19.904-39.14 13.15.47 13.598 3.293 19.742 4.866.878.224.81-1.746 4.465.081 7.871 3.936 22.07 30.536 12.775 42.81M108.483 281.737c-5.403.928-23.864 1.592-23.864 1.592l10.408-.231.142 1a6.36 6.36 0 01-2.252 5.799 76.088 76.088 0 01-3.444 2.676l52.84 4.063-23.42-22.074c-2.852 4.665-5.374 6.309-10.41 7.175zM73.435 231.717L37.9 225.842l-21.285-3.52 18.564 21 19.698 22.284c11.81 1.95 26.974.863 26.974.863s2.015-10.406 9.299-13.183c1.625-.62 2.806-1.063 3.707-1.378l-21.422-20.19zM89.927 264.51a4.51 4.51 0 003.031-.43c1.07-.74 7.614-3.842 8.84-5.63l-2.92-2.753c-.219.449-.465.883-.738 1.3l-8.213 7.512z" fill="#112F4E" fill-rule="nonzero"/><path d="M118.71 265.475c2.331-5.376-2.796-5.951-2.796-5.951a12.483 12.483 0 00-1.067-4.081c-.91-1.824-5.332-.872-5.332-.872a13.533 13.533 0 00-2.687-1.735c-1.936-1.028-6.041 1.02-5.7 2.273.34 1.254.819 1.186.885 2.804a.97.97 0 01-.215.536c-1.226 1.79-7.77 4.892-8.84 5.63a4.51 4.51 0 01-3.03.43l8.212-7.512c.273-.417.52-.851.738-1.3.585-1.197 1.138-2.882.042-3.53-1.38-.816-.926-1.357-4.063-.26-.9.316-2.082.76-3.707 1.379-7.284 2.777-9.299 13.183-9.299 13.183l2.768 16.86s18.461-.664 23.864-1.592c5.036-.866 7.558-2.51 10.41-7.175.208-.339.417-.691.63-1.064 3.128-5.489-.812-8.023-.812-8.023z" fill="#005EA2" fill-rule="nonzero"/><path d="M108.399 147.867c-1.52-.953-3.06-1.892-4.619-2.765a226.926 226.926 0 01.369 4.834c.542 8.396.616 18.18-1.67 20.78 0 0-21.77-21.813-31.6-27.788-.227.452-.444.87-.665 1.298 11.227 13.748 43.072 51.487 53.052 84.39 0 0-11.773-63.655-14.867-80.749z" fill="#112F4E" fill-rule="nonzero"/><path d="M142.314 296.636l-52.84-4.063a76.428 76.428 0 002.566-1.965 8.158 8.158 0 002.987-7.51l-10.408.23-2.768-16.859s-15.164 1.086-26.974-.863L35.18 243.323c-1.272 11.028-2.243 23.859-1.662 29.3 1.064 9.97-16.056 28.829 18.737 28.085 0 0 6.796 34.535-24.023 65.775 0 0-8.361 5.024 1.943 11.241s53.87 25.517 74.642 21.875c20.772-3.642 35.173-16.174 42.111-60.78 0 0-7.187 55.467-5.477 55.225 1.71-.243 11.03 2.037 9.716-2.314-1.251-4.139 2.64-5.867 4.999-79.32.12-3.746 6.48-21.4 6.547-25.315.312-18.182-3.354-72.094-3.354-72.094s18.286 35.447 47.772 16.959c0 0 18.155-68.88 17.67-72.301-.485-3.422-2.094-7.381-14.848-6.271-12.755 1.11-15.104 4.235-15.104 4.235l-5.312 31.463s-25.885-12.733-29.392-22.705c-3.508-9.973-11.131-9.59-14.503-8.763-3.373.827-15.592 3.257-20.624 2.226a178.554 178.554 0 00-14.611-10.708c-.656-.428-1.335-.847-2.007-1.269 3.094 17.094 14.867 80.748 14.867 80.748-9.98-32.902-41.825-70.64-53.052-84.389-.498.97-3.567 1.483-4.03 2.335-3.102 5.698-2.969 8.31-2.969 8.31-9.735 13.081-17.157 15.773-24.93 18.797a60.18 60.18 0 00-1.982 7.824c-.45 9.138 3.621 40.318 1.957 43.346a5.304 5.304 0 00-.36 1.004l35.535 5.875 21.422 20.19c3.137-1.097 2.683-.556 4.063.26 1.096.647.543 2.333-.042 3.53l2.92 2.752a.97.97 0 00.215-.536c-.066-1.618-.545-1.55-.886-2.804-.34-1.254 3.765-3.3 5.7-2.273.962.47 1.864 1.053 2.688 1.735 0 0 4.422-.952 5.332.872.585 1.29.945 2.67 1.067 4.08 0 0 5.127.576 2.797 5.952 0 0 3.94 2.534.812 8.023a40.06 40.06 0 01-.63 1.064l23.42 22.074" fill="#E8F5FF" fill-rule="nonzero"/><path d="M77.6 135.346c.235-.93 9.105-7.789 10.71-14.605 1.317-5.591-1.089-14.013-1.21-16.517-.385-7.985 13.671-12.791 13.415-19.337l13.87 21.593s-.49.666-.271 3.193c.035.402.042 1.096.085 1.583.424 4.757.61 12.051-1.105 15.896-1.459 3.269-2.423 5.863-4.075 8.048-1.651 2.185-3.99 3.96-5.1 5.222-.24.272-.48.518-.721.744-1.043.979-2.142 1.864-3.374 1.603-6.519-1.378-22.225-7.423-22.225-7.423z" fill="#005EA2" fill-rule="nonzero"/><path d="M114.2 105.14l-3.868-4.24c-.755 3.579-1.685 5.886-1.36 9.597.186.46.392.955.635 1.507 1.034 2.35 2.115 3.457 2.079 4.562-.08 2.378-3.173 3.404-3.173 3.404l-1.325 5.832s1.189 1.457.459 2.065c-.73.608.773 2.577-1.134 3.174 0 0-1.179 8.454-3.315 10.125a21.109 21.109 0 005.318-4.44 29.454 29.454 0 004.966-8.68c1.02-3.028.927-7.01.717-22.906z" fill="#2491FF" fill-rule="nonzero"/><path d="M107.202 120.032s-1.763-.583-2.588.334c-.825.916 2.588-.334 2.588-.334zM109.875 119.851s.381-.667.838.177c.456.844-.838-.177-.838-.177zM98.955 109.426l2.22-.418a1.824 1.824 0 00-.329-2.278 1.677 1.677 0 10-2.357 2.354c.139.135.295.25.466.342z" fill="#112F4E" fill-rule="nonzero"/><path d="M93.187 108.885a3.382 3.382 0 011.426-2.167 5.11 5.11 0 012.507-.913c.438-.038.878-.04 1.316-.004.428.052.851.132 1.269.239.406.126.805.274 1.194.444.38.192.746.41 1.096.65a10.62 10.62 0 01-1.253-.034c-.405-.023-.808-.022-1.198-.061a16.561 16.561 0 00-2.29.055 6.277 6.277 0 00-4.067 1.791z" fill="#112F4E" fill-rule="nonzero"/><ellipse fill="#112F4E" fill-rule="nonzero" transform="rotate(-32.854 113.253 107.59)" cx="113.253" cy="107.591" rx="1.297" ry="1.462"/><path d="M109.446 107.958a2.993 2.993 0 012.79-2.802c.714-.06 1.43.085 2.065.417.291.17.566.367.82.59.235.245.441.518.613.813a5.826 5.826 0 01-.978-.019c-.303-.006-.59-.026-.86-.043-.493-.023-.987-.019-1.48.014a7.686 7.686 0 00-2.97 1.03zM101.964 103.794s-4.74-1.55-8.35.423c-3.59 1.96-3.594 2.848-3.594 2.859-.038-5.77 6.532-6.502 10.84-4.748 1.594.65 1.104 1.466 1.104 1.466zM110.332 100.9s-3.297 2.221-2.955 3.693c0 0 3.874-2.478 4.916-2.076 1.041.402-1.96-1.617-1.96-1.617z" fill="#112F4E" fill-rule="nonzero"/><path d="M85.18 166.511s-12.54 8.03-11.56 12.19c.981 4.159 11.56-12.19 11.56-12.19zM114.18 164.354c1.862-.655 9.964-4.148 14.883.235 4.92 4.382-14.882-.235-14.882-.235zM83.91 176.85l-8.563 25.052 51.423 59.531s-46.667-56.298-47.481-62.044c-.815-5.746 4.62-22.538 4.62-22.538zM119.32 167.533s14.44 5.378 15.86 7.13c1.421 1.753 1.645-2.187 1.645-2.187l-17.504-4.943zM135.063 182.104s-.203 62.093 2.301 74.243c2.504 12.15.493-69.532.493-69.532l-2.794-4.71zM159.358 215c-.197-3.487-7.937-30.525-7.937-30.525s14.24 42.25 20.586 42.914c6.346.663 15.826 11.437 19.88 6.954 4.054-4.482 16.665-3.468 13.595-2.144-3.071 1.324-16.426 11.027-33.7-3.328-9.716-8.073-12.424-13.87-12.424-13.87zM62.842 229.465s.699-39.176-2.414-44.596l7.007 46.68-4.593-2.084zM52.254 300.708l20.438-2.81s-2.374 6.138-6.477 15.681c-4.542 10.568-4.072-12.121-5.243-2.11C59.8 321.48 36.59 357.582 36.59 357.582a92.176 92.176 0 006.17-10.358c8.247-15.762 7.418-16.624 9.493-46.516z" fill="#A1D3FF" fill-rule="nonzero"/><path d="M90.735 280.823c-4.937-3.073-7.576-8.357-8.433-13.967l-.388-.418s-2.662 18.47 2.445 19.33c3.96.668 8.56-.018 10.458-3.036a19.853 19.853 0 01-4.082-1.909zM197.087 158.494c1.078 2.879 25.617 1.984 25.856-.507.239-2.49-16.515-6.583-19.464-5.7-2.949.881-6.392 6.207-6.392 6.207z" fill="#112F4E" fill-rule="nonzero"/><path d="M217.216 112.254a5.072 5.072 0 003.365-3.244c1.462-4.147 1.319-9.793 4.067-11.085 4.53-2.129-.938 24.413-3.34 31.073-2.4 6.66-4.242 25.135-4.242 25.135-3.025 4.89-17.908 2.167-17.908 2.167s3.785-12.396 1.617-18.851c-2.218-6.606-5.088-6.968-9.17-15.873-2.555-5.575-6.193-14.757-4.218-15.293 1.974-.536 4.665.364 5.413 5.64.748 5.277 3.258 6.715 3.258 6.715s1.258-11.66.378-17.226c-2.46-15.543-.93-18.501.664-17.01 3.317 3.099 4.029 24.803 5.823 24.805 1.795.002 2.374-4.95 2.45-8.037.187-7.716-.769-19.883 2.963-18.874 2.258.61 2.135 16.87 2.135 16.87s-1.527 10.949.924 8.327c.942-1.008.846-19.343 2.93-20.92 2.083-1.576 3.382 4.34 3.168 8.106-.21 3.722-2.592 16.371-.277 17.575z" fill="#005EA2" fill-rule="nonzero"/><path d="M189.536 189.086s1.68 19.075.434 17.948c-1.245-1.126-6.938-20.599-6.938-20.599 1.387.464 6.504 2.651 6.504 2.651z" fill="#A1D3FF" fill-rule="nonzero"/><path d="M61.76 154.039a180.749 180.749 0 0116.667 46.205M132.347 162.105c-5.183-17.007-28.567-17.003-28.567-17.003" stroke="#112F4E" stroke-width="1.66"/><path d="M147.268 220.426c7.87-3.554 10.145-6.255 9.024-14.79-.771-5.878-1.533-11.781-2.592-17.614-1.53-8.426-4.556-27.72-16.538-27.153-10.228.484-14.01 8.918-15.321 17.88-1.072 7.328-4.24 23.068.364 29.15 3.411 4.507 6.904 5.675 6.904 5.675" stroke="#112F4E" stroke-width="1.66"/><circle fill="#112F4E" fill-rule="nonzero" cx="75.322" cy="199.852" r="6.862"/><ellipse fill="#112F4E" fill-rule="nonzero" transform="rotate(-8.068 127.944 213.185)" cx="127.944" cy="213.185" rx="2.196" ry="2.745"/><ellipse fill="#112F4E" fill-rule="nonzero" transform="rotate(-8.068 147.48 220.067)" cx="147.48" cy="220.067" rx="2.196" ry="2.745"/><path d="M104.149 149.936a214.666 214.666 0 00-.369-4.834 237.35 237.35 0 00-.726-7.092s-8.366-1.406-12.861-1.66c-.915-.006-1.828.049-2.735.163l3.032-10.54-4.34-6.758-2.829 7.651-2.068-16.848s-5.53-6.455-9.653-4.235c-4.418 2.38-2.19 17.407 3.172 16.492 3.286-.56-3.893 20.653-3.893 20.653l1.69 1.104c10.426 7.162 29.91 26.684 29.91 26.684 2.286-2.6 2.212-12.384 1.67-20.78z" fill="#005EA2" fill-rule="nonzero"/><path d="M108.878 125.159c-.823.124-1.006.429-1.9.58-.893.153-.878-.927-2.316-.43-3.082 1.065-7.01-.26-8.852-.168-.042.002-1.207-.236-.602.227.603.463 5.512 3.232 6.707 4.025a6.768 6.768 0 004.415 1.378 5.602 5.602 0 002.778-1.47c.37-.33.687-.716.939-1.144.238-.414 1.206-1.74.81-1.975-.394-.235-1.1-.645-1.397-.868-.298-.222-.333-.192-.582-.155zM64.232 76.091s.608-9.383-17.39-14.078C37.318 59.53 7.092 67.396 19.1 86.857c12.008 19.46 7.453 16.562 1.656 29.398-5.797 12.835-2.898 11.593 4.555 20.288 14.473 16.886 1.242 34.781 12.007 22.36 10.766-12.422-6.624-17.805 4.141-24.016 10.766-6.21 20.318-1.874 17.804-14.078-2.513-12.203 4.97-44.718 4.97-44.718zM103.422 140.942s-17.142.368-26.503-9.646l-.271 1.966s18.445 22.769 26.774 7.68z" fill="#112F4E" fill-rule="nonzero"/></g><ellipse fill="#0B4778" fill-rule="nonzero" cx="226.605" cy="36.85" rx="3.507" ry="4.856"/><path d="M271.846 53.701l-30.887-10.203a1.785 1.785 0 01-1.225-1.695v-1.018a1.785 1.785 0 012.395-1.678l30.886 11.221a1.785 1.785 0 01-1.17 3.373z" fill="#0B4778" fill-rule="nonzero"/><path d="M508.418 37.142a8.53 8.53 0 003.418.9 31.5 31.5 0 00-3.418-.9zM501.305 37.752s-1.707 1.463-2.195 1.26M256.534 130.344s-4.029 1.993-3.065 4.438c0 0 1.05-3.441 3.065-4.438z" fill="#112F4E" fill-rule="nonzero"/><path d="M160.314 385.668l158.96-7.855 1.068 39.85a13.692 13.692 0 01-11.427 13.87l-143.122 23.954-5.503-10.357.024-59.462z" fill="#0B4778" fill-rule="nonzero"/><path fill="#0B4778" d="M319 367v21.33L164 386z"/><path d="M308.747 357.07s-1.972-32.547-2.465-36c-.493-3.451.493-45.367.493-45.367l1.972 81.367zM282.611 328.468S247.6 339.81 244.64 330.44c-2.959-9.369 37.971-1.972 37.971-1.972z" fill="#A1D3FF" fill-rule="nonzero"/><ellipse fill="#A1D3FF" fill-rule="nonzero" cx="252.733" cy="411.083" rx="16.937" ry="19.611"/></g></svg>